<svg width="41" height="137" viewBox="0 0 41 137" fill="none" xmlns="http://www.w3.org/2000/svg">
<line x1="21.5" y1="39" x2="21.5" y2="82" stroke="#B07506" stroke-width="3"/>
<path opacity="0.5" d="M20 137C31.0457 137 40 128.046 40 117C40 105.954 31.0457 97 20 97C8.9543 97 0 105.954 0 117C0 128.046 8.9543 137 20 137Z" fill="#BEBEBE"/>
<path d="M20 127C25.5228 127 30 122.523 30 117C30 111.477 25.5228 107 20 107C14.4772 107 10 111.477 10 117C10 122.523 14.4772 127 20 127Z" fill="#BEBEBE"/>
<path d="M20.5 103.25C25.3325 103.25 29.25 99.3325 29.25 94.5C29.25 89.6675 25.3325 85.75 20.5 85.75C15.6675 85.75 11.75 89.6675 11.75 94.5C11.75 99.3325 15.6675 103.25 20.5 103.25Z" fill="white"/>
<path d="M20.5 82C17.1848 82 14.0054 83.317 11.6612 85.6612C9.31696 88.0054 8 91.1848 8 94.5C8 102.529 17 112.548 18.417 114.079C19.002 114.714 19.492 115.333 20.5 115.333C21.508 115.333 22 114.714 22.583 114.079C24 112.548 33 102.529 33 94.5C33 92.8585 32.6767 91.233 32.0485 89.7165C31.4203 88.1999 30.4996 86.8219 29.3388 85.6612C28.1781 84.5004 26.8001 83.5797 25.2835 82.9515C23.767 82.3233 22.1415 82 20.5 82V82ZM20.5 102.833C18.8519 102.833 17.2408 102.344 15.8704 101.429C14.5001 100.513 13.432 99.2116 12.8013 97.6889C12.1706 96.1662 12.0056 94.4908 12.3271 92.8743C12.6486 91.2579 13.4423 89.7731 14.6077 88.6077C15.7731 87.4423 17.2579 86.6486 18.8743 86.3271C20.4908 86.0056 22.1662 86.1706 23.6889 86.8013C25.2116 87.432 26.513 88.5001 27.4286 89.8704C28.3443 91.2408 28.833 92.8519 28.833 94.5C28.8327 96.71 27.9547 98.8293 26.392 100.392C24.8293 101.955 22.71 102.833 20.5 102.833ZM20.5 90.333C19.6758 90.333 18.8702 90.5774 18.1849 91.0353C17.4997 91.4931 16.9656 92.1439 16.6502 92.9054C16.3348 93.6668 16.2523 94.5046 16.4131 95.3129C16.5739 96.1213 16.9707 96.8637 17.5535 97.4465C18.1363 98.0293 18.8787 98.4261 19.6871 98.5869C20.4954 98.7477 21.3332 98.6652 22.0946 98.3498C22.8561 98.0344 23.5069 97.5003 23.9647 96.8151C24.4226 96.1298 24.667 95.3242 24.667 94.5C24.6667 93.3949 24.2276 92.3352 23.4462 91.5538C22.6648 90.7724 21.6051 90.3333 20.5 90.333Z" fill="#F23838"/>
<g opacity="0.5">
<path opacity="0.5" d="M21 40C32.0457 40 41 31.0457 41 20C41 8.9543 32.0457 0 21 0C9.9543 0 1 8.9543 1 20C1 31.0457 9.9543 40 21 40Z" fill="#BEBEBE"/>
<path opacity="0.5" d="M21 39.5C31.7696 39.5 40.5 30.7696 40.5 20C40.5 9.23045 31.7696 0.5 21 0.5C10.2304 0.5 1.5 9.23045 1.5 20C1.5 30.7696 10.2304 39.5 21 39.5Z" stroke="#69707E"/>
</g>
<path d="M21 30C26.5228 30 31 25.5228 31 20C31 14.4772 26.5228 10 21 10C15.4772 10 11 14.4772 11 20C11 25.5228 15.4772 30 21 30Z" fill="white"/>
<path d="M21 27.5C25.1421 27.5 28.5 24.1421 28.5 20C28.5 15.8579 25.1421 12.5 21 12.5C16.8579 12.5 13.5 15.8579 13.5 20C13.5 24.1421 16.8579 27.5 21 27.5Z" stroke="#88C601" stroke-width="5"/>
</svg>
