<svg width="176" height="131" viewBox="0 0 176 131" fill="none" xmlns="http://www.w3.org/2000/svg">
<path d="M94.8334 68H133.147C138.577 68 142.979 73.7321 142.979 80.8014V92.9517L145.299 93.6379L147 105.762L145.825 118L133.699 117.925C133.509 117.943 133.338 118 133.149 118H94.8349C89.4011 118 85 112.271 85 105.199V80.8028C84.9971 73.7336 89.4011 68 94.8334 68Z" fill="#E46D0A"/>
<path d="M94.8347 68H133.148C138.577 68 142.98 73.696 142.98 80.7241V92.8025L145.299 93.4845L147 105.534L146.184 114L145.299 107.751L142.98 107.069V94.9924C142.98 87.9659 138.579 82.2684 133.148 82.2684H94.8347C89.401 82.2684 85 87.9673 85 94.9924V80.7226C85 73.696 89.401 68 94.8347 68Z" fill="#E19119"/>
<path d="M148.177 82.1584H155.947C162.439 82.5822 175.349 85.5574 175.102 102.509V108.749C175.102 114.087 172.779 118.414 169.92 118.414H148.18C145.318 118.414 142.994 114.089 142.994 108.749V91.8203C142.994 86.4831 145.316 82.154 148.18 82.154" fill="#E3E4E3"/>
<path d="M146.102 76.1949H150.759C154.643 76.4176 162.374 77.9624 162.226 86.7666V90.0021C162.226 92.7763 160.83 95.0226 159.122 95.0226H146.105C144.394 95.0226 143.001 92.7763 143.001 90.0021V81.2182C142.998 78.444 144.392 76.1949 146.103 76.1949" fill="#E3E4E3"/>
<path d="M158.587 87H162.458C165.691 87.2342 172.123 88.8754 171.998 98.2242V101.665C171.998 104.612 170.844 107 169.417 107H158.587C157.16 107 156 104.612 156 101.665V92.3305C156 89.3871 157.16 87.0014 158.587 87.0014" fill="#A2C2CA"/>
<path d="M146 121.001C146.002 123.654 147.057 126.197 148.933 128.072C150.809 129.947 153.353 131 156.004 131C158.655 130.998 161.196 129.944 163.07 128.069C164.944 126.194 165.998 123.653 166 121.001C165.999 118.35 164.946 115.807 163.072 113.931C161.197 112.056 158.655 111.002 156.004 111C154.691 111 153.39 111.258 152.177 111.76C150.963 112.263 149.86 112.999 148.931 113.928C148.002 114.857 147.265 115.96 146.762 117.173C146.259 118.387 146 119.688 146 121.001Z" fill="white"/>
<path d="M148 120.949C148.002 123.085 148.846 125.133 150.347 126.642C151.847 128.152 153.882 129 156.004 129C158.124 128.997 160.156 128.148 161.655 126.639C163.154 125.13 163.997 123.083 164 120.949C163.972 118.831 163.117 116.809 161.62 115.322C160.123 113.834 158.104 113 156 113C153.896 113 151.877 113.834 150.38 115.322C148.883 116.809 148.028 118.831 148 120.949Z" fill="#243438"/>
<path d="M151 120.422C151 121.901 151.527 123.32 152.464 124.366C153.402 125.412 154.674 126 156 126C157.326 126 158.598 125.412 159.536 124.366C160.473 123.32 161 121.901 161 120.422C160.963 118.97 160.42 117.591 159.486 116.579C158.553 115.566 157.302 115 156 115C154.698 115 153.447 115.566 152.514 116.579C151.58 117.591 151.037 118.97 151 120.422Z" fill="#969796"/>
<path d="M105 122C105.001 124.387 105.897 126.675 107.49 128.363C109.084 130.051 111.246 130.999 113.5 131C115.754 130.998 117.915 130.05 119.509 128.362C121.102 126.675 121.999 124.386 122 122C121.999 119.613 121.103 117.325 119.51 115.637C117.916 113.949 115.754 113.001 113.5 113C112.384 113 111.278 113.233 110.247 113.685C109.216 114.137 108.279 114.8 107.49 115.636C106.7 116.472 106.074 117.464 105.647 118.556C105.22 119.648 105 120.818 105 122Z" fill="white"/>
<path d="M106 122C106 123.857 106.79 125.637 108.197 126.95C109.603 128.263 111.511 129 113.5 129C115.489 129 117.397 128.263 118.803 126.95C120.21 125.637 121 123.857 121 122C121.001 121.081 120.808 120.171 120.431 119.322C120.055 118.473 119.504 117.701 118.808 117.051C118.112 116.401 117.286 115.885 116.376 115.533C115.467 115.181 114.492 115 113.508 115C112.522 114.999 111.546 115.179 110.635 115.53C109.724 115.882 108.896 116.397 108.199 117.047C107.502 117.697 106.949 118.47 106.571 119.319C106.194 120.169 106 121.08 106 122Z" fill="#243438"/>
<path d="M109 122.497C109 123.089 109.117 123.674 109.343 124.221C109.569 124.767 109.901 125.264 110.319 125.682C110.738 126.1 111.234 126.431 111.781 126.658C112.327 126.884 112.913 127 113.504 127C114.394 126.999 115.263 126.735 116.003 126.24C116.742 125.745 117.318 125.042 117.658 124.22C117.998 123.398 118.087 122.493 117.913 121.621C117.739 120.748 117.311 119.947 116.681 119.318C116.052 118.688 115.251 118.26 114.378 118.087C113.505 117.913 112.601 118.002 111.779 118.342C110.957 118.682 110.254 119.259 109.759 119.998C109.265 120.738 109.001 121.607 109 122.497Z" fill="#969796"/>
<path d="M87 122.007C87.0009 123.189 87.2217 124.359 87.6497 125.451C88.0777 126.543 88.7046 127.534 89.4946 128.369C90.2845 129.204 91.2221 129.866 92.2537 130.318C93.2853 130.769 94.3908 131.001 95.507 131C96.6233 130.999 97.7284 130.765 98.7593 130.312C99.7902 129.859 100.727 129.195 101.515 128.359C102.304 127.522 102.929 126.53 103.356 125.437C103.782 124.345 104.001 123.174 104 121.993C103.998 119.606 103.101 117.317 101.505 115.631C99.91 113.944 97.7473 112.998 95.493 113C93.2386 113.002 91.0773 113.952 89.4846 115.641C87.8919 117.331 86.9981 119.621 87 122.007Z" fill="white"/>
<path d="M88 122C88.0024 123.857 88.794 125.637 90.2009 126.95C91.6078 128.262 93.5151 129 95.5038 129C97.4919 129 99.3986 128.263 100.804 126.95C102.21 125.637 103 123.857 103 122C103 120.143 102.21 118.363 100.804 117.05C99.3986 115.738 97.4919 115 95.5038 115C94.5188 114.999 93.5434 115.18 92.6332 115.532C91.7231 115.883 90.896 116.399 90.1991 117.049C89.5023 117.699 88.9495 118.47 88.5721 119.32C88.1948 120.17 88.0004 121.08 88 122Z" fill="#243438"/>
<path d="M91.0007 122.421C90.9902 123.018 91.0988 123.612 91.3201 124.167C91.5415 124.722 91.8713 125.228 92.2901 125.654C92.7089 126.08 93.2085 126.419 93.7596 126.65C94.3107 126.881 94.9024 127 95.5 127C96.0976 127 96.6893 126.881 97.2404 126.65C97.7915 126.419 98.2911 126.08 98.7099 125.654C99.1287 125.228 99.4585 124.722 99.6799 124.167C99.9012 123.612 100.01 123.018 99.9993 122.421C99.9785 121.241 99.4953 120.117 98.6538 119.29C97.8123 118.463 96.6797 118 95.5 118C94.3203 118 93.1877 118.463 92.3462 119.29C91.5047 120.117 91.0215 121.241 91.0007 122.421Z" fill="#969796"/>
<path d="M84 107.55C84 110.01 85.1173 112 86.5008 112C87.8794 112 89 110.01 89 107.55V107.453C89 104.99 87.8794 103 86.5008 103C85.1157 103 84 104.99 84 107.453V107.55Z" fill="#DF394C"/>
<path d="M-2.7893 48.5991C8.57874 79.7631 26.7241 116.021 86.8433 122.014C146.962 128.007 40.5646 125.044 16.3397 112.525C-0.086401 104.037 -18.6391 82.0605 -18.6391 82.0605C-20.643 44.6037 -14.1573 17.435 -2.7893 48.5991Z" fill="#FFBC40" fill-opacity="0.2"/>
<path d="M3.43719 18.82C8.36618 57.3623 19.0359 103.08 78.1037 120.798C137.171 138.515 31.0461 116.115 9.34433 97.1357C-5.37085 84.2662 -19.4168 55.2126 -19.4168 55.2126C-13.6439 10.962 -1.4918 -19.7222 3.43719 18.82Z" fill="#FFBC40" fill-opacity="0.2"/>
</svg>
